


<svg width="58" height="58" viewBox="0 0 58 58" fill="none" xmlns="http://www.w3.org/2000/svg">


<g clip-path="url(#clip0_222_5)">


<path d="M58.0242 16.426C57.4248 15.7058 56.5282 15.2491 55.5253 15.2491C55.4963 15.2491 55.4697 15.2491 55.4407 15.2491H55.4456H47.1298L49.4353 4.02851C49.4909 3.80134 49.5199 3.53793 49.5199 3.26968C49.5199 2.47218 49.2468 1.73993 48.7877 1.15993L48.7925 1.16718C48.1908 0.447009 47.2942 -0.00732422 46.2888 -0.00732422C46.2622 -0.00732422 46.2357 -0.00732422 46.2091 -0.00732422H46.2139C44.0389 0.0627591 42.2433 1.59976 41.7793 3.64184L41.7721 3.67326L41.1462 6.72309C41.1268 6.80043 41.093 6.87293 41.0761 6.95026L39.3651 15.2515H25.3653L27.6708 4.03093C27.7264 3.80376 27.7554 3.54034 27.7554 3.27209C27.7554 2.47459 27.4823 1.74234 27.0232 1.16234L27.028 1.16959C26.4262 0.449426 25.5297 -0.00490755 24.5243 -0.00490755C24.4977 -0.00490755 24.4712 -0.00490755 24.4446 -0.00490755H24.4494C22.2744 0.0651758 20.4788 1.60218 20.0148 3.64426L20.0076 3.67568L19.3551 6.84876C19.3551 6.88501 19.3309 6.91643 19.3237 6.95026L17.6272 15.2515H8.57191C6.39691 15.3216 4.60133 16.8562 4.13491 18.8983L4.12766 18.9297C4.07208 19.1568 4.04066 19.4203 4.04066 19.6909C4.04066 20.4884 4.31375 21.2207 4.77291 21.8007L4.76808 21.7934C5.36741 22.5136 6.264 22.9703 7.26933 22.9703H7.3515H7.34666H16.0394L13.5696 34.9812H4.50466C2.32966 35.0513 0.53408 36.5883 0.0676634 38.6303L0.0604134 38.6618C0.00724675 38.8889 -0.0241699 39.1523 -0.0241699 39.4206C-0.0241699 40.2157 0.248913 40.9479 0.705663 41.5255L0.70083 41.5183C1.30258 42.2384 2.19916 42.6952 3.2045 42.6952H3.28666H3.28183H11.9746L9.65458 53.9762C9.599 54.2033 9.57 54.4668 9.57 54.735C9.57 55.5325 9.84308 56.2648 10.3022 56.8448L10.2974 56.8375C10.8992 57.5577 11.7957 58.0144 12.8011 58.0144H12.8808H12.876C15.051 57.9443 16.8466 56.4073 17.313 54.3653L17.3202 54.3338L19.7127 42.7H33.7197L31.3997 53.981C31.3442 54.2082 31.3152 54.4716 31.3152 54.7398C31.3152 55.5373 31.5882 56.2696 32.0474 56.8496L32.0426 56.8423C32.6443 57.5625 33.5409 58.0168 34.5462 58.0168H34.626H34.6212C36.7962 57.9468 38.5917 56.4098 39.0557 54.3677L39.063 54.3363L41.4555 42.7024H50.1555C52.3305 42.6323 54.1261 41.0978 54.5925 39.0557L54.5998 39.0243C54.6578 38.7898 54.6916 38.5216 54.6916 38.2437C54.6916 37.4534 54.4185 36.726 53.9642 36.1533L53.969 36.1605C53.3673 35.4403 52.4682 34.9836 51.4629 34.9836C51.4339 34.9836 51.4049 34.9836 51.3759 34.9836H51.3807H43.0505L45.5203 22.9728H54.2203C56.3953 22.9027 58.1909 21.3657 58.6573 19.3236L58.6646 19.2922C58.7202 19.065 58.7516 18.8016 58.7516 18.5309C58.7516 17.7334 58.4761 17.0012 58.0169 16.4212L58.0218 16.4284L58.0242 16.426ZM21.3126 34.9739L23.7824 22.9631H37.7894L35.3196 34.9739H21.3126Z" fill="white"/>


</g>


<defs>


<clipPath id="clip0_222_5">


<rect width="58" height="58" fill="white"/>


</clipPath>


</defs>


</svg>





 

