
<svg  width="20px" version="1.1" id="Capa_1" xmlns="http://www.w3.org/2000/svg" xmlns:xlink="http://www.w3.org/1999/xlink" x="0px" y="0px"
	 viewBox="0 0 58 58" style="enable-background:new 0 0 58 58;" xml:space="preserve">
<g>
	<path fill="#FFF" d="M54.616,0H3.384C1.518,0,0,1.518,0,3.384v51.231C0,56.482,1.518,58,3.384,58h51.231C56.482,58,58,56.482,58,54.616V3.384
		C58,1.518,56.482,0,54.616,0z M56,54.616C56,55.379,55.379,56,54.616,56H3.384C2.621,56,2,55.379,2,54.616V3.384
		C2,2.621,2.621,2,3.384,2h51.231C55.379,2,56,2.621,56,3.384V54.616z"/>
	<path fill="#FFF" d="M5,39h12v7h24v-7h12V4H5V39z M7,6h44v31H39v7H19v-7H7V6z"/>
	<path fill="#FFF" d="M13,16h18c0.552,0,1-0.448,1-1s-0.448-1-1-1H13c-0.552,0-1,0.448-1,1S12.448,16,13,16z"/>
	<path fill="#FFF" d="M45,28H34c-0.552,0-1,0.448-1,1s0.448,1,1,1h11c0.552,0,1-0.448,1-1S45.552,28,45,28z"/>
	<path fill="#FFF" d="M13,23h6c0.552,0,1-0.448,1-1s-0.448-1-1-1h-6c-0.552,0-1,0.448-1,1S12.448,23,13,23z"/>
	<path fill="#FFF" d="M28,22c0,0.552,0.448,1,1,1h11c0.552,0,1-0.448,1-1s-0.448-1-1-1H29C28.448,21,28,21.448,28,22z"/>
	<path fill="#FFF" d="M23.29,21.29C23.11,21.48,23,21.74,23,22c0,0.26,0.11,0.52,0.29,0.71C23.48,22.89,23.74,23,24,23
		c0.27,0,0.52-0.11,0.71-0.29C24.89,22.52,25,22.26,25,22c0-0.26-0.11-0.52-0.29-0.71C24.34,20.92,23.67,20.92,23.29,21.29z"/>
	<path fill="#FFF" d="M30,29c0-0.552-0.448-1-1-1H18c-0.552,0-1,0.448-1,1s0.448,1,1,1h11C29.552,30,30,29.552,30,29z"/>
	<path fill="#FFF" d="M12.29,28.29C12.11,28.48,12,28.74,12,29c0,0.26,0.11,0.52,0.29,0.71C12.48,29.89,12.74,30,13,30
		c0.26,0,0.52-0.11,0.71-0.29C13.89,29.52,14,29.26,14,29c0-0.26-0.11-0.52-0.29-0.71C13.33,27.92,12.66,27.92,12.29,28.29z"/>
	<path fill="#FFF" d="M45,23c0.26,0,0.52-0.11,0.71-0.29C45.89,22.52,46,22.26,46,22c0-0.26-0.11-0.52-0.29-0.71c-0.37-0.37-1.05-0.37-1.42,0
		C44.11,21.48,44,21.74,44,22c0,0.26,0.11,0.52,0.29,0.71C44.48,22.89,44.73,23,45,23z"/>
</g>
<g>
</g>
<g>
</g>
<g>
</g>
<g>
</g>
<g>
</g>
<g>
</g>
<g>
</g>
<g>
</g>
<g>
</g>
<g>
</g>
<g>
</g>
<g>
</g>
<g>
</g>
<g>
</g>
<g>
</g>
</svg>
