
<svg width="61" height="61" viewBox="0 0 61 61" fill="none" xmlns="http://www.w3.org/2000/svg">
<g clip-path="url(#clip0_222_2)">
<path d="M54.454 23.18L35.845 23.178L35.844 5.91C35.845 2.646 33.198 0 29.934 0C26.671 0 24.025 2.646 24.025 5.91V23.179L5.91 23.178C2.646 23.179 0 25.825 0 29.088C0.002 32.352 2.646 34.997 5.91 34.997H24.025V54.454C24.025 57.721 26.671 60.364 29.935 60.364C33.199 60.364 35.844 57.718 35.845 54.456V34.997H54.456C57.718 34.997 60.364 32.352 60.364 29.09C60.367 25.824 57.718 23.178 54.454 23.18Z" fill="white"/>
</g>
<defs>
<clipPath id="clip0_222_2">
<rect width="60.364" height="60.364" fill="white"/>
</clipPath>
</defs>
</svg>
